<?xml version="1.0" encoding="utf-8"?>
<!-- Generator: Adobe Illustrator 27.5.0, SVG Export Plug-In . SVG Version: 6.00 Build 0)  -->
<svg version="1.1" id="Layer_1" xmlns="http://www.w3.org/2000/svg" xmlns:xlink="http://www.w3.org/1999/xlink" x="0px" y="0px"
	 viewBox="0 0 612 792" style="enable-background:new 0 0 612 792;" xml:space="preserve">
<g>
	<g>
		<path d="M291.47,397.17c-1.08-0.29-2.23-0.67-3.4-0.91c-1.51-0.31-2.62,0.18-3,1.83c-0.09,0.4-0.2,0.93-0.49,1.12
			c-3.41,2.22-3.91,6.35-6.13,9.35c-0.81,1.1-1.13,2.57-1.61,3.9c-0.68,1.87-0.95,4.01-2.03,5.6c-1.87,2.76-1.85,5.83-1.7,8.76
			c0.12,2.26,1.31,4.52,2.29,6.65c1.28,2.78,2.61,5.57,4.29,8.12c2.76,4.2,2.71,8.96,3.12,13.61c0.77,8.73-1.39,17.02-4.34,25.11
			c-1.67,4.59-3.69,9.05-5.47,13.6c-0.73,1.86-1.06,3.88-1.9,5.68c-2.6,5.58-5.35,11.09-8.04,16.63c-1.05,2.17-2.3,4.28-3.08,6.55
			c-0.42,1.23-0.15,2.73-0.02,4.1c0.2,2.16,0.54,4.31,0.84,6.45c0.45,3.19,0.46,6.54,1.51,9.52c1.34,3.78,3.75,7.16,5.33,10.87
			c1.68,3.95,2.94,8.09,4.56,12.65c-3.01,0-5.62,0.15-8.2-0.11c-0.59-0.06-1.19-1.44-1.53-2.31c-1.9-4.88-3.66-9.82-5.6-14.69
			c-0.48-1.21-1.26-2.43-2.22-3.28c-3.64-3.21-4.33-7.38-4-11.83c0.82-10.95-0.42-21.66-3.93-32.03c-1.07-3.18-3.02-6.09-4.7-9.05
			c-0.94-1.67-2.26-1.57-3.41-0.15c-6.29,7.76-11.16,16.21-12.26,26.37c-0.52,4.8-0.89,9.63-1.14,14.45
			c-0.25,5.02,0.86,9.75,3.61,14.06c2.62,4.1,2.96,4.26,7.27,2.65c0.02,3.17,2.63,4.28,4.58,6c0.93,0.82,1.48,2.05,2.21,3.09
			c-1.7,1.1-2.9-0.08-3.96-1.04c-1.44-1.31-2.67-2.86-3.99-4.3c-0.22,0.13-0.45,0.27-0.67,0.4c1.95,3.74,3.89,7.48,5.95,11.44
			c-0.73,0.15-1.26,0.34-1.79,0.35c-11.91,0.05-23.83,0.05-35.74,0.15c-1.79,0.01-2.47-0.4-2.48-2.35
			c-0.01-7.89-0.13-15.79-0.39-23.68c-0.07-2.01-0.79-3.99-1.19-5.99c-0.08-0.38-0.14-0.79-0.08-1.16c0.28-1.67,0.9-3.35,0.86-5.01
			c-0.24-11.57-0.39-23.14-1.03-34.69c-0.31-5.6,1.08-10.97,1.12-16.54c0.05-8.29,1.16-16.59,2.04-24.86
			c0.96-9.05,4.05-17.48,8.12-25.55c0.54-1.07,1.6-1.87,2.4-2.81c0.8-0.93,1.77-1.78,2.35-2.83c1.62-2.98,3.09-6.05,4.6-9.09
			c1.63-3.28,1.22-6.39-0.58-9.51c-2.44-4.21-4.29-8.69-4.29-13.62c0-2.51,0.76-5.02,1.06-6.83c1.61,0,3.03,0.43,3.68-0.09
			c1.48-1.18,3.15-2.68,3.61-4.36c0.23-0.84-2.03-2.35-3.3-3.71c1.07,0.3,2.45,0.36,3.44,1.01c4.52,2.96,9.02,5.93,11,11.46
			c0.91,2.55,2.41,4.91,3.84,7.23c0.28,0.46,1.64,0.71,2.19,0.44c1.17-0.58,2.17-1.52,3.19-2.39c7.55-6.44,16.45-6.89,25.7-5.87
			c5.53,0.61,9.92,3.6,14.24,6.75c0.62,0.45,1.36,0.74,2.55,1.37c0-2.92,0-5.3,0-7.68c0.19-0.03,0.38-0.06,0.57-0.09
			C287.78,389.79,289.65,393.53,291.47,397.17z"/>
		<path d="M236.95,314.48c5.04,0.91,3.07-3.62,4.78-5.34c2.16-2.17,3.47-5.51,5.96-6.95c3.13-1.8,5.34-4.26,6.56-7.15
			c2.92-6.91,12.54-10.9,20.44-3.82c1.08,0.97,1.61,2.56,2.39,3.86c-0.28,0.21-0.57,0.42-0.85,0.62c-0.78-0.66-1.59-1.29-2.34-1.99
			c-6.17-5.74-13.02-4.86-18.22,1.81c-3.51,4.5-5.39,9.56-6.89,14.88c-0.16,0.55-0.35,1.18-0.24,1.71c0.7,3.56,1.53,7.09,2.21,10.65
			c0.24,1.27,0.22,2.59,0.29,3.89c0.01,0.24-0.22,0.54-0.14,0.72c2.23,5.16-2.82,9.52-1.63,14.58c0.1,0.45-0.49,1.06-1.06,2.21
			c-1.03-3.05-2.35-4.66-4.94-2.36c-0.35-0.58-0.64-0.84-0.66-1.12c-0.23-3.18-2.18-5.25-4.44-7.2c-2.94-2.55-2.87-4.21-0.16-7.04
			c0.6-0.62,1.22-1.92,0.96-2.51c-0.44-0.97-1.58-1.63-2.45-2.39c-0.5-0.43-1.05-0.79-1.58-1.18c0.53-0.29,1.03-0.77,1.59-0.85
			c2.09-0.31,2.22-1.36,1.3-2.96C237.51,316.03,237.34,315.43,236.95,314.48z"/>
		<path d="M279.48,299.55c1.6,3.85,3.2,7.71,4.8,11.56c0.09,0.23,0.09,0.51,0.21,0.71c3.65,5.92,2.03,12.77,3.29,19.12
			c0.29,1.46-0.74,3.18-1.17,4.78c-0.35,1.34-0.4,2.52,1.36,2.86c0.16,0.03,0.34,0.06,0.48,0.13c1.69,0.88,4.59,10.21,3.48,11.72
			c-0.34,0.46-1.66,0.69-2.24,0.41c-3.79-1.86-7.48-3.94-11.25-5.84c-4.13-2.07-5.23-3.76-4.66-8.29c0.52-4.11,1.26-8.2,1.95-12.29
			c0.2-1.15,0.67-1.93,2.19-1.73c2.44,0.33,3.93-1.42,2.83-3.58c-3.17-6.23-0.37-12.98-2.46-19.25
			C278.7,299.75,279.09,299.65,279.48,299.55z"/>
		<path d="M330.8,448.87c0.52,2.81,3.2,1.67,4.79,2.5c-0.84,2.65-2.75,3.27-4.48,1.26c-5.19-6.05-10.2-12.25-15.29-18.38
			c-3.18-3.84-6.48-7.58-9.54-11.52c-1.49-1.92-2.57-4.16-3.81-6.27c-0.97-1.63-1.91-3.28-2.86-4.93c1.61-0.83,3.31-1.53,4.81-2.53
			c3.45-2.3,6.81-4.74,10.29-7.18c1.47,1.22,1.56,2.66,0.38,3.89c-1.76,1.83-3.75,3.45-5.68,5.12c-0.71,0.61-1.52,1.11-2.29,1.66
			c0.18,0.28,0.36,0.56,0.55,0.84c3.49-2.4,6.98-4.79,10.47-7.19c0.25,0.32,0.5,0.63,0.75,0.95c-3.75,4.09-8.82,6.79-12.37,11.29
			c1.64-0.53,3.29-1.05,4.93-1.58c0.13,0.16,0.26,0.33,0.39,0.49c-0.47,0.84-0.94,1.68-1.4,2.53c0.1,0.11,0.21,0.23,0.31,0.34
			c2.08-1.38,4.16-2.76,6.25-4.14c0.16,0.19,0.32,0.39,0.47,0.58c-1.23,1.03-2.46,2.07-3.99,3.35c1.29,0.38,2.17,0.65,3.64,1.09
			c-1.72,1.21-3.04,2.14-4.38,3.08c2.06,2.67,4.09,4.48,7.43,5.26c5.46,1.27,8.29,7.33,6.73,12.81c-0.06,0.22-0.01,0.48-0.01,0.83
			c3.23,1.09,6.13,0.15,8.94-1.55c0.11,0.32,0.22,0.64,0.33,0.96c-1.23,0.51-2.49,0.99-3.7,1.55c-1.32,0.61-2.59,1.3-4.39,2.21
			c1.95,0,3.39,0,4.84,0c0.09,0.18,0.17,0.36,0.26,0.54C332.37,447.43,331.59,448.15,330.8,448.87z"/>
		<path d="M345.71,453.82c-1.03,1.71-1.93,2.98-2.56,4.37c-0.27,0.59-0.26,1.76,0.13,2.12c1.42,1.32,2.93,2.66,4.63,3.53
			c2.05,1.05,4.35,1.61,6.51,2.44c2.74,1.05,5.45,2.17,8.35,3.96c-0.71,0.13-1.5,0.52-2.11,0.33c-1.73-0.55-3.42-1.28-5.07-2.06
			c-2.32-1.1-4.55-1.82-7.27-1.96c-4.22-0.21-7.19-3.44-10.08-6.31c-0.24-0.24-0.28-1.13-0.06-1.33c1.93-1.79,3.94-3.51,5.96-5.2
			C344.29,453.56,344.73,453.74,345.71,453.82z"/>
		<path d="M351.27,462.29c2.78-3.43,6.3-4.36,9.41-5.93c2.84-1.43,5.75-1.09,8.76-0.46c1.97,0.42,4.07,0.25,6.11,0.37
			c0.52,0.03,1.03,0.17,1.54,0.26c0.05,0.27,0.1,0.54,0.15,0.8c-1.15,0.35-2.29,0.95-3.44,0.99c-1.39,0.04-2.87-0.18-4.17-0.68
			c-4.2-1.6-7.59,0.1-10.95,2.31c-1.31,0.86-2.67,1.71-4.12,2.28C353.77,462.55,352.74,462.29,351.27,462.29z"/>
		<path d="M266.17,316.68c-2.75,0-5.25,0-8.01,0c0.81-2.23,2.24-2.36,3.76-2.25C263.56,314.54,265.49,314.1,266.17,316.68z"/>
		<path d="M339.82,453.84c-1,1.04-1.91,2.21-3.06,3.05c-0.4,0.29-1.39-0.21-2.1-0.35c0.22-0.59,0.27-1.46,0.69-1.71
			c1.22-0.73,2.59-1.21,3.9-1.79C339.44,453.31,339.63,453.58,339.82,453.84z"/>
		<path d="M268.87,303.03c2.53-1.21,4.24-0.23,5.99,1.15C273.23,305.57,271.02,305.17,268.87,303.03z"/>
		<path d="M253.04,302.76c2-1.61,3.79-1.6,5.82-0.57C257.46,303.97,255.19,304.23,253.04,302.76z"/>
		<path d="M206.58,232.08c1.43,0.96,2.85,1.91,4.28,2.87c-0.21,0.32-0.42,0.65-0.64,0.97c-1.44-0.93-2.89-1.86-4.33-2.79
			C206.12,232.78,206.35,232.43,206.58,232.08z"/>
		<path d="M331.17,433.47c-0.74-1.37-1.49-2.74-2.23-4.1c0.35-0.18,0.69-0.37,1.04-0.55c0.67,1.41,1.33,2.82,2,4.23
			C331.71,433.2,331.44,433.34,331.17,433.47z"/>
	</g>
</g>
</svg>
