<?xml version="1.0" standalone="no"?>
<!DOCTYPE svg PUBLIC "-//W3C//DTD SVG 20010904//EN"
 "http://www.w3.org/TR/2001/REC-SVG-20010904/DTD/svg10.dtd">
<svg version="1.0" xmlns="http://www.w3.org/2000/svg"
 width="718.000000pt" height="718.000000pt" viewBox="0 0 718.000000 718.000000"
 preserveAspectRatio="xMidYMid meet">
<metadata>
Created by potrace 1.14, written by Peter Selinger 2001-2017
</metadata>
<g transform="translate(0.000000,718.000000) scale(0.100000,-0.100000)"
fill="#000000" stroke="none">
<path d="M3760 7167 c-14 -5 -38 -15 -55 -23 -16 -7 -45 -18 -63 -25 -18 -6
-35 -16 -39 -22 -4 -6 -1 -7 7 -2 9 5 11 4 6 -3 -10 -16 -89 -52 -99 -45 -5 3
-3 9 4 14 8 5 10 9 4 9 -18 0 -38 -17 -32 -27 4 -6 -5 -15 -19 -22 -33 -15
-37 -14 -30 4 3 8 1 15 -4 15 -6 0 -10 -4 -10 -9 0 -5 -16 -26 -35 -47 -34
-38 -36 -38 -50 -20 -12 16 -15 17 -15 4 0 -18 -40 -31 -64 -22 -17 7 -18 13
-18 111 0 49 -3 61 -14 56 -19 -7 -29 -52 -15 -66 16 -16 15 -81 -1 -70 -13 7
-18 9 -50 11 -9 1 -45 38 -78 82 l-61 80 -32 -22 c-18 -13 -45 -23 -62 -23
-25 0 -30 -5 -31 -25 -1 -14 -2 -30 -2 -37 -1 -6 -37 -25 -80 -42 -84 -32
-132 -34 -173 -8 -13 9 -33 17 -44 19 -17 2 -20 -3 -21 -32 -1 -42 -15 -121
-51 -290 -19 -88 -37 -142 -61 -185 -40 -71 -99 -135 -124 -135 -10 0 -21 -6
-24 -14 -9 -24 -59 -26 -121 -5 -49 17 -234 88 -298 114 -11 5 -22 9 -25 10
-3 1 -12 5 -20 8 -26 11 -155 59 -165 61 -5 2 -17 6 -25 9 -8 4 -62 23 -120
42 -58 20 -114 40 -125 45 -56 25 -496 158 -550 166 -16 3 -39 9 -50 14 -11 5
-60 20 -110 34 -49 13 -130 37 -180 51 -49 15 -94 28 -100 30 -5 1 -17 5 -25
8 -31 11 -159 47 -170 47 -7 0 -2 -16 11 -40 13 -22 26 -40 30 -40 19 0 41
-78 44 -156 3 -94 10 -107 79 -151 21 -14 41 -33 43 -44 3 -10 8 -19 12 -19 4
0 13 -28 19 -62 17 -91 21 -108 31 -153 11 -49 85 -299 101 -340 6 -16 11 -31
11 -32 -1 -7 44 -140 79 -233 28 -72 112 -337 126 -392 2 -10 6 -26 9 -35 3
-10 26 -94 51 -188 25 -93 48 -177 51 -185 4 -8 7 -21 9 -29 5 -24 64 -182 88
-236 13 -27 27 -61 31 -75 22 -71 76 -167 108 -192 19 -15 57 -61 85 -103 l51
-76 14 33 c8 18 27 63 42 100 15 37 32 72 39 77 18 15 47 -15 70 -70 10 -24
26 -60 36 -79 18 -35 33 -81 44 -132 4 -15 15 -35 25 -45 10 -10 31 -46 45
-80 14 -35 37 -86 50 -115 25 -54 55 -143 60 -171 1 -9 5 -20 9 -23 13 -13 7
-53 -19 -126 -14 -40 -30 -82 -36 -93 -5 -12 -10 -27 -11 -35 -2 -8 -5 -19 -8
-25 -9 -14 -108 -327 -110 -345 -3 -32 2 -40 26 -40 14 0 25 3 26 8 2 17 10
43 54 167 26 72 48 137 50 145 4 14 71 209 136 393 l31 87 34 -20 c28 -18 36
-19 53 -8 12 7 21 16 21 21 0 19 65 30 200 33 l145 3 28 31 c25 28 37 58 19
46 -5 -3 -28 -8 -53 -11 -71 -10 -73 -10 -87 -19 -10 -6 -10 -11 -1 -22 9 -11
0 -13 -58 -13 -78 1 -97 8 -91 35 3 17 12 23 78 54 14 6 45 29 68 51 46 41 62
48 63 27 0 -12 13 29 71 227 30 104 49 167 58 195 l8 25 1 -24 c1 -24 1 -24
16 -5 13 17 14 11 15 -66 1 -69 3 -81 12 -62 15 30 23 28 36 -10 11 -31 11
-30 7 17 -3 28 -7 61 -10 75 -6 30 -7 157 -1 185 18 86 22 170 11 243 -9 65 0
67 18 5 8 -26 18 -48 24 -50 11 -4 10 11 -1 82 -4 22 -9 55 -12 74 -2 19 -6
47 -9 62 -5 27 -4 27 37 22 43 -5 67 -14 90 -35 23 -23 82 -63 130 -91 26 -15
53 -33 60 -40 7 -7 42 -32 78 -56 113 -73 140 -145 102 -265 -13 -38 -17 -70
-12 -90 10 -48 3 -120 -21 -212 -19 -73 -20 -88 -9 -109 7 -14 20 -25 27 -25
23 0 72 29 115 68 l40 36 23 -26 c22 -25 22 -28 9 -94 -7 -38 -16 -79 -19 -91
-3 -13 -7 -32 -10 -44 -2 -11 -7 -29 -10 -39 -24 -77 -27 -141 -7 -181 15 -29
22 -33 57 -34 23 -1 46 -5 54 -9 7 -4 29 -9 49 -11 20 -2 49 -8 63 -13 15 -6
29 -8 32 -6 3 3 18 7 33 9 16 2 40 7 54 11 14 3 79 8 145 11 117 5 121 4 142
-19 15 -15 23 -38 24 -63 2 -59 1 -62 -30 -92 -22 -21 -41 -62 -73 -159 -46
-135 -50 -173 -34 -314 3 -25 7 -65 10 -90 3 -25 7 -56 10 -70 2 -14 7 -50 10
-80 9 -78 16 -114 25 -123 7 -7 23 4 97 68 12 11 35 29 50 40 15 11 41 32 58
47 17 15 33 24 36 21 17 -17 -286 -244 -346 -259 -20 -5 -25 -11 -21 -30 3
-20 1 -22 -14 -13 -11 5 -19 15 -19 21 0 9 -3 9 -12 0 -7 -7 -21 -12 -32 -12
-35 0 -49 -15 -42 -44 4 -17 11 -23 21 -20 29 12 14 -11 -17 -25 -28 -13 -32
-12 -45 4 -7 11 -13 22 -13 27 0 4 -4 8 -9 8 -5 0 -7 -9 -4 -20 8 -30 -15 -76
-43 -89 -38 -17 -55 -14 -87 17 l-28 27 10 -28 c17 -45 13 -54 -25 -62 -20 -3
-38 -5 -40 -3 -4 5 -12 45 -13 67 -1 8 -4 11 -8 7 -4 -4 -6 -26 -4 -50 2 -40
0 -44 -27 -54 -35 -12 -46 -6 -59 32 -8 26 -36 51 -32 29 1 -4 1 -24 0 -43
l-2 -35 -14 25 -15 25 4 -25 c5 -34 -10 -60 -35 -60 -18 0 -19 4 -13 52 5 37
4 49 -5 44 -6 -4 -11 -15 -11 -25 0 -11 -9 -21 -21 -24 -18 -5 -20 -2 -15 18
4 17 1 24 -14 28 -11 3 -20 1 -20 -4 0 -4 -7 -6 -15 -3 -8 3 -29 -3 -47 -13
l-33 -19 0 75 c-1 66 -8 152 -19 241 -2 14 -7 50 -10 80 -10 79 -21 125 -37
148 -13 18 -98 100 -237 229 -60 56 -122 89 -146 80 -11 -5 -16 -20 -16 -52 0
-25 4 -45 8 -45 5 0 9 -6 9 -12 0 -7 3 -42 7 -78 4 -36 9 -90 12 -120 2 -30 7
-73 9 -95 3 -22 7 -67 10 -99 3 -33 7 -61 9 -63 8 -8 -15 -84 -31 -102 -16
-20 -17 -20 -55 0 l-38 19 0 -27 c0 -22 2 -25 10 -13 8 13 10 12 10 -2 0 -20
11 -23 27 -7 8 8 15 4 27 -12 19 -27 20 -38 6 -73 l-9 -26 -35 21 c-20 11 -40
18 -46 14 -5 -3 -7 0 -4 8 8 21 -10 29 -38 18 -14 -5 -29 -24 -37 -47 -8 -22
-18 -42 -23 -45 -20 -13 -55 17 -113 98 -66 94 -155 188 -206 217 -33 19 -33
19 -19 1 8 -10 32 -34 52 -53 21 -19 64 -71 95 -116 111 -158 247 -331 291
-371 25 -21 51 -53 58 -71 7 -18 30 -42 50 -55 l37 -22 -22 -18 c-17 -14 -39
-18 -89 -18 -64 1 -89 -2 -122 -15 -11 -5 -16 0 -18 16 -7 68 -20 95 -52 110
-20 8 -40 32 -61 74 -18 34 -39 70 -46 80 -23 32 -33 -2 -28 -96 5 -87 6 -123
5 -174 -1 -16 5 -33 12 -37 19 -13 10 -11 -59 10 -35 11 -63 17 -63 14 0 -3
-6 -1 -12 4 -18 15 -142 37 -162 30 -31 -12 -15 -25 47 -36 34 -7 73 -16 87
-22 27 -10 54 -58 48 -86 -4 -24 -80 -24 -128 -1 -48 24 -76 14 -91 -31 -6
-20 -22 -53 -36 -73 l-25 -37 28 -52 c16 -28 38 -57 49 -64 11 -7 64 -23 118
-35 114 -27 121 -39 32 -55 -11 -2 -21 -4 -22 -5 -5 -4 -22 -7 -40 -9 -13 -1
-15 -3 -5 -9 7 -5 38 -3 70 4 31 6 60 9 64 5 14 -13 47 -101 39 -106 -5 -2
-19 16 -32 40 -13 25 -27 45 -32 45 -4 0 -1 -12 6 -28 8 -15 18 -38 22 -52 l7
-25 -27 25 c-21 19 -27 21 -22 8 4 -10 2 -18 -3 -18 -6 0 -10 7 -10 15 0 22
-17 18 -23 -5 -8 -30 -33 -24 -49 10 -7 17 -20 29 -28 28 -8 -1 -21 1 -27 5
-18 11 -16 30 1 24 14 -6 26 12 26 39 0 25 -64 41 -141 36 -14 -1 -43 -13 -63
-27 -20 -14 -38 -25 -40 -25 -10 0 0 36 15 51 22 22 21 24 -21 133 -22 54 -36
80 -38 68 -2 -11 9 -47 24 -79 33 -71 34 -101 5 -142 -16 -23 -24 -50 -27 -93
-3 -60 -3 -61 13 -37 37 53 53 51 53 -7 0 -37 -3 -45 -15 -40 -11 4 -19 -3
-25 -20 -6 -15 -15 -22 -21 -18 -7 4 -9 0 -5 -14 5 -15 2 -22 -13 -27 -46 -14
-37 -73 16 -106 55 -34 61 -60 58 -272 -1 -194 12 -356 30 -347 6 3 9 9 7 14
-6 18 -13 223 -16 464 -3 242 -2 244 20 258 16 11 35 13 70 8 119 -16 146 -8
171 49 9 20 20 27 40 28 47 1 147 8 204 14 30 3 74 8 99 10 25 3 56 7 70 10
36 8 223 19 530 31 l145 6 28 -27 c15 -15 27 -34 27 -42 0 -7 6 -24 14 -36 32
-48 54 -161 51 -258 -5 -182 -23 -219 -113 -235 -15 -3 -36 -11 -47 -18 -20
-12 -54 -11 -56 2 -1 4 -3 81 -4 172 -2 91 -3 177 -4 192 -1 27 -24 58 -42 58
-20 0 -54 -49 -68 -96 -8 -27 -27 -76 -43 -109 -28 -58 -59 -150 -56 -163 5
-18 -131 -264 -175 -318 -28 -33 -51 -69 -53 -78 -5 -36 75 -53 142 -30 68 23
72 10 39 -116 -10 -36 -19 -96 -21 -135 -2 -38 -5 -85 -7 -103 -3 -23 0 -35
12 -41 22 -11 1731 -13 1731 -2 0 4 -9 37 -21 72 -35 111 -41 267 -14 397 2 9
13 61 25 116 12 54 23 108 26 120 2 11 6 32 9 46 2 14 7 45 10 70 6 46 9 63
20 140 4 25 20 84 37 131 16 48 29 93 28 100 -4 29 1 38 39 68 45 36 94 44
147 26 47 -16 60 -11 72 24 6 15 23 43 40 62 38 44 45 68 47 159 1 78 9 101
55 160 44 57 52 79 56 159 3 72 11 156 14 156 1 0 3 7 5 15 2 8 18 56 36 105
26 73 32 104 31 164 -1 59 3 82 20 113 17 31 27 38 43 34 11 -3 29 -8 40 -11
14 -4 34 7 67 35 49 43 69 88 114 260 11 43 27 76 48 98 35 37 35 48 5 159
-11 39 -20 87 -21 107 -2 52 38 105 110 146 34 19 64 42 67 51 5 14 -14 74
-44 144 -31 70 -61 159 -61 181 0 14 10 40 22 57 27 37 27 91 3 207 -15 71
-14 99 3 118 16 20 96 52 127 52 22 0 18 21 -5 27 -11 3 -20 9 -20 14 0 7 58
73 135 155 11 11 71 76 134 143 63 67 138 146 167 176 47 47 103 115 181 221
12 16 65 87 117 158 53 71 96 130 96 132 0 2 7 12 16 21 8 10 35 45 59 78 25
33 48 65 53 70 5 6 26 35 47 65 68 97 110 155 118 165 5 6 64 91 132 190 68
99 128 185 132 190 30 36 107 173 125 221 36 100 31 275 -9 315 -8 8 -29 1
-73 -27 -65 -40 -109 -85 -111 -112 -4 -46 -10 -63 -54 -142 -49 -88 -113
-183 -159 -235 -59 -66 -93 -110 -272 -350 -102 -137 -193 -259 -202 -270 -79
-96 -242 -327 -242 -344 0 -6 -3 -11 -7 -11 -5 0 -17 -18 -27 -40 -11 -22 -31
-49 -45 -60 -49 -38 -142 -100 -149 -100 -4 0 -30 -18 -57 -41 -27 -22 -58
-45 -69 -51 -34 -18 -134 -8 -173 17 -21 14 -21 13 -14 -13 6 -19 3 -37 -10
-61 -16 -30 -18 -47 -7 -76 1 -5 -1 -12 -6 -14 -6 -2 -19 14 -30 35 -12 22
-23 41 -26 44 -5 5 -16 25 -69 125 -14 28 -28 52 -31 55 -15 15 -33 63 -34 92
-1 18 -14 55 -30 81 -16 26 -26 50 -24 53 3 2 21 -3 41 -11 41 -17 59 -5 33
24 -23 26 -20 56 10 77 43 32 120 104 110 104 -4 0 -25 -13 -46 -30 -37 -29
-54 -31 -43 -4 3 8 1 14 -3 15 -127 10 -190 34 -250 95 -24 25 -44 52 -44 59
0 7 -4 15 -8 17 -5 2 -28 37 -52 78 -25 41 -47 77 -50 80 -3 3 -11 16 -19 30
-8 14 -43 72 -78 129 -35 57 -63 107 -63 112 0 14 83 28 190 34 405 21 445 21
570 1 14 -3 48 -7 75 -11 28 -3 57 -8 65 -10 8 -2 27 -7 43 -10 62 -12 81 -16
87 -20 3 -2 31 -6 61 -10 92 -11 134 16 259 164 25 30 51 59 58 67 28 29 12
33 -125 27 -201 -8 -244 -8 -288 1 -48 10 -64 12 -130 20 -60 7 -79 11 -125
27 -65 22 -78 31 -109 73 -35 47 -101 121 -101 113 0 -4 -11 4 -24 16 -64 60
-282 101 -386 73 -14 -4 -45 -9 -70 -11 -25 -2 -45 -4 -45 -5 0 -1 -16 -3 -35
-6 -19 -2 -44 -6 -56 -9 -12 -2 -39 -7 -60 -11 -21 -3 -41 -6 -44 -7 -26 -5
-56 25 -100 101 -28 48 -55 94 -60 102 -6 8 -14 24 -19 35 -5 11 -27 57 -49
102 -22 45 -38 91 -35 101 2 11 -2 25 -9 33 -29 28 -48 66 -52 102 -3 21 -12
45 -21 53 -9 9 -34 44 -57 78 -73 108 -115 135 -219 139 -38 1 -69 4 -69 7 0
3 12 13 28 22 15 9 38 25 50 37 13 11 29 22 35 24 7 2 10 7 7 9 -3 3 -16 1
-30 -5z m71 -130 c38 -16 108 -75 74 -62 -112 44 -149 52 -240 55 l-50 2 40
13 c47 16 129 12 176 -8z m-1098 -234 c-2 -10 -14 -30 -26 -45 l-22 -27 -12
25 c-10 21 -9 26 5 31 35 12 43 24 30 41 -11 13 -10 14 9 4 13 -7 19 -18 16
-29z m553 -89 c47 -41 65 -51 144 -79 115 -41 137 -54 153 -88 23 -49 18 -86
-23 -167 -37 -72 -67 -100 -107 -100 -7 0 -13 -3 -13 -8 0 -4 -13 -13 -29 -20
-16 -7 -42 -25 -57 -39 -16 -15 -56 -43 -89 -64 -56 -34 -60 -39 -61 -75 -1
-43 -12 -102 -21 -117 -3 -5 -14 -40 -23 -78 l-18 -69 26 -21 c36 -28 20 -52
-35 -54 -27 -1 -54 -11 -84 -33 -42 -30 -46 -31 -80 -19 -22 7 -75 12 -129 10
-50 -1 -103 3 -118 8 l-25 10 43 39 44 40 -28 0 c-34 0 -95 -59 -98 -93 0 -12
-2 -35 -2 -50 l-2 -29 18 22 17 21 28 -26 c32 -30 60 -43 106 -49 18 -2 37 -6
42 -8 13 -4 16 7 8 28 -11 29 20 38 120 35 55 -1 133 -35 148 -63 6 -11 9 -21
7 -23 -2 -2 -28 3 -58 11 -30 9 -62 17 -70 19 -8 2 -28 6 -44 11 l-29 7 32
-33 c36 -38 40 -60 10 -60 -32 0 -18 -21 32 -49 74 -41 83 -69 23 -75 -39 -4
-40 -23 -5 -96 16 -35 27 -70 23 -79 -11 -28 -48 -62 -68 -62 -157 4 -330 11
-343 15 -9 3 -52 8 -96 12 -43 3 -89 10 -101 14 -23 9 -83 64 -85 77 0 4 -3
17 -6 28 -12 43 -4 189 15 285 7 30 14 70 17 87 32 195 84 334 182 483 41 64
73 121 78 140 14 58 40 110 75 150 17 19 44 63 60 96 16 34 35 66 42 72 22 18
261 111 303 118 22 3 41 7 43 8 1 2 19 3 41 4 28 1 46 -5 67 -24z m593 -332
c11 -21 3 -102 -10 -102 -5 0 -9 6 -10 13 0 6 -3 33 -5 60 -5 48 7 62 25 29z
m1168 -214 c42 -29 46 -57 5 -32 -28 16 -59 54 -45 54 4 0 22 -10 40 -22z
m-1375 -77 c-6 -82 -96 -139 -164 -104 -16 7 -28 21 -28 30 0 37 125 115 175
110 16 -2 19 -8 17 -36z m-2287 -104 c33 -4 71 -9 85 -12 22 -4 57 -11 110
-20 8 -2 42 -10 75 -18 33 -9 71 -18 85 -21 14 -2 52 -12 85 -21 33 -9 69 -18
80 -20 11 -2 36 -9 55 -15 19 -6 46 -14 60 -17 40 -8 43 -9 87 -23 23 -7 52
-23 63 -35 27 -29 18 -53 -59 -156 -51 -67 -62 -89 -80 -166 -12 -48 -24 -95
-26 -103 -4 -18 -53 -158 -62 -180 -3 -8 -7 -17 -8 -20 -1 -3 -7 -18 -13 -33
-7 -16 -12 -32 -12 -36 0 -13 -29 -40 -133 -125 -26 -22 -67 -57 -90 -78 -23
-21 -45 -38 -48 -38 -14 0 -37 -67 -34 -100 1 -19 3 -43 4 -52 0 -9 13 -30 27
-45 66 -71 74 -141 29 -251 l-15 -35 -31 34 c-25 28 -186 269 -224 336 -5 10
-12 20 -15 23 -30 30 -112 207 -124 266 -6 30 -11 50 -66 234 -17 58 -33 113
-35 122 -11 53 -99 295 -132 368 -51 108 -103 227 -103 233 0 3 10 7 23 9 39
5 379 1 442 -5z m2216 -173 c60 -58 69 -124 34 -249 -10 -33 -19 -73 -20 -89
-2 -22 -24 -51 -85 -110 -89 -88 -100 -89 -96 -7 2 39 8 50 47 83 24 21 44 44
44 50 1 7 -19 53 -44 101 l-45 89 44 84 c40 74 47 83 69 79 13 -2 37 -16 52
-31z m-1887 -1001 c-8 -42 -13 -76 -13 -100 -2 -45 -19 -22 -18 25 0 40 19
102 32 102 2 0 1 -12 -1 -27z m3311 -64 c49 -60 74 -97 68 -102 -3 -3 8 -28
25 -56 35 -56 54 -130 31 -116 -8 5 -34 28 -59 51 -60 56 -94 86 -162 146 -45
39 -58 57 -58 79 0 27 20 46 45 45 6 -1 26 -12 45 -26 l35 -25 -27 34 c-16 18
-28 40 -28 49 1 17 29 -10 85 -79z m-185 -49 c3 -4 25 -22 50 -41 25 -19 59
-46 75 -60 17 -15 63 -55 103 -89 40 -34 78 -73 84 -85 15 -34 2 -71 -39 -107
-20 -18 -47 -45 -60 -59 -13 -14 -45 -36 -71 -49 -54 -26 -63 -35 -117 -110
-22 -30 -44 -59 -50 -65 -6 -5 -24 -28 -40 -50 -16 -22 -31 -42 -34 -45 -11
-9 -30 -44 -77 -135 -57 -110 -91 -158 -110 -151 -8 3 -28 -8 -45 -25 -17 -17
-32 -29 -34 -27 -9 9 -18 102 -17 173 1 61 10 112 40 215 22 74 45 161 52 193
13 63 7 111 -13 105 -7 -3 -64 -108 -127 -235 -63 -126 -120 -236 -126 -244
-21 -25 -85 -152 -115 -226 -27 -67 -36 -99 -44 -148 -1 -11 -8 -40 -15 -64
-14 -54 -15 -53 -76 101 -25 65 -56 133 -70 153 -13 20 -24 38 -24 42 0 3 -18
28 -40 55 -22 28 -40 56 -40 64 0 7 14 28 30 46 17 18 30 37 30 43 0 5 -19
-11 -41 -37 l-41 -46 -34 38 c-19 20 -34 46 -34 56 0 23 136 155 197 190 26
16 68 49 93 74 25 25 77 65 115 90 39 25 75 49 81 55 6 5 34 24 62 40 48 28
75 65 75 101 0 18 5 18 25 -2 15 -16 17 -15 29 14 14 33 29 48 31 29 1 -27 12
-61 21 -70 6 -6 8 -2 4 12 -6 23 7 27 38 10 19 -10 20 -8 15 22 -2 17 -9 36
-15 42 -6 6 -11 15 -11 19 0 18 25 6 56 -28 29 -30 33 -32 25 -11 -6 15 -6 39
0 63 9 32 26 51 101 111 84 67 110 77 128 53z m268 -499 c12 -7 16 -66 9 -131
-3 -26 -32 -92 -65 -145 -29 -49 -66 -109 -80 -130 -6 -11 -16 -29 -21 -40 -5
-12 -17 -27 -26 -35 -17 -14 -17 -9 -12 90 3 58 8 116 12 130 4 14 7 31 7 38
1 6 5 12 10 12 4 0 8 7 8 16 0 17 35 79 57 102 7 8 27 33 44 58 31 46 36 49
57 35z m-1223 -495 c11 -16 20 -34 22 -40 1 -6 5 -21 9 -33 4 -16 2 -23 -7
-23 -7 0 -10 3 -6 6 3 3 -7 27 -23 53 -15 27 -31 59 -35 72 -7 20 -6 21 7 9 8
-8 23 -28 33 -44z m-245 -1151 c0 -8 -4 -15 -10 -15 -5 0 -7 7 -4 15 4 8 8 15
10 15 2 0 4 -7 4 -15z m423 -41 c30 -11 -5 -73 -66 -116 l-28 -20 14 33 c45
106 51 114 80 103z m-505 -44 c-7 -11 -16 -20 -20 -20 -11 0 -28 -63 -24 -95
1 -16 -2 -39 -7 -50 -13 -26 -99 -139 -109 -143 -4 -2 -8 -8 -8 -14 0 -12 -35
-52 -129 -143 -59 -59 -72 -77 -66 -94 4 -14 2 -21 -7 -21 -31 -1 -60 -36 -63
-78 -3 -50 -24 -73 -73 -77 -20 -2 -47 -6 -59 -9 -58 -15 -63 -15 -63 1 0 8 9
17 20 20 11 3 20 10 20 15 0 5 4 7 9 3 5 -3 12 -1 15 4 3 5 22 12 41 15 19 4
35 11 35 15 0 12 -94 51 -123 51 -14 0 -31 -10 -40 -22 l-16 -23 -2 28 c-2 36
-3 40 -12 54 -11 17 14 26 138 54 94 20 125 36 125 64 0 7 -50 -6 -125 -31
-81 -28 -125 -39 -125 -31 0 7 -3 21 -6 32 -7 29 33 80 51 65 8 -7 34 -10 59
-9 25 2 48 0 52 -4 4 -4 -1 -7 -11 -7 -34 0 -125 -34 -125 -46 0 -10 10 -10
48 2 26 8 59 17 75 21 15 3 30 10 33 14 3 5 10 6 16 3 8 -5 9 -1 5 10 -5 12 1
19 20 27 125 47 183 91 208 154 11 29 14 65 6 65 -7 0 -49 -41 -106 -104 -21
-23 -32 -27 -55 -22 -21 4 -33 0 -42 -12 -25 -34 -73 -59 -130 -69 -50 -9 -92
-3 -78 10 3 3 51 21 107 40 94 33 107 41 162 96 32 34 70 76 84 94 22 29 167
127 188 127 5 0 9 5 9 10 0 6 6 10 13 10 6 0 23 9 37 20 14 11 33 20 43 20 15
0 15 -3 5 -20z m-1092 -29 c-3 -4 11 -7 30 -7 19 0 39 -5 44 -12 6 -6 7 -10 4
-7 -4 2 -22 -12 -40 -32 -32 -34 -40 -33 -35 5 1 6 -3 12 -9 12 -5 0 -9 -3 -9
-7 3 -19 -2 -33 -12 -33 -5 0 -8 4 -5 8 2 4 1 14 -5 22 -6 10 -9 11 -9 3 0 -7
-4 -13 -9 -13 -9 0 -8 47 0 54 26 21 67 27 55 7z m84 -53 c0 -9 4 -8 10 2 11
17 13 1 4 -24 -10 -26 -34 -19 -32 9 2 25 18 36 18 13z m105 -25 c-8 -16 -17
-40 -20 -56 -5 -23 -8 -26 -25 -17 -14 7 -17 17 -14 37 3 16 9 30 15 31 5 2 9
10 9 18 0 8 10 14 25 14 23 0 23 -1 10 -27z m101 7 l29 11 -27 -23 c-14 -13
-29 -30 -32 -38 -3 -8 -4 -5 -2 7 6 33 -12 39 -25 9 -13 -27 -35 -40 -44 -26
-14 22 52 80 66 58 3 -5 18 -4 35 2z m-227 -94 c22 -12 20 -14 -44 -30 -37 -9
-70 -14 -74 -11 -10 11 48 55 72 55 12 -1 33 -7 46 -14z m94 -81 c-1 -16 3
-32 9 -36 6 -4 -20 -17 -57 -28 -80 -25 -94 -19 -71 31 17 36 65 66 101 64 16
-1 20 -8 18 -31z m411 26 c5 -8 -68 -41 -92 -41 -19 0 -14 20 6 20 9 1 28 7
42 15 30 17 37 18 44 6z m-174 -44 c0 -8 -43 -27 -61 -27 -16 0 -10 39 8 48
17 10 53 -4 53 -21z m186 -29 c6 -7 -52 -26 -103 -34 -26 -4 -33 -2 -33 10 0
9 8 16 18 17 25 1 76 10 80 14 5 5 30 0 38 -7z m-221 -38 c25 -9 25 -10 9 -35
-15 -23 -15 -27 -1 -43 18 -19 18 -23 1 -78 -6 -22 -8 -47 -4 -55 5 -8 7 -39
5 -69 -2 -30 -4 -61 -4 -69 -1 -10 -4 -11 -15 -2 -12 10 -13 6 -4 -29 8 -30 8
-44 -1 -53 -8 -8 -11 -5 -12 14 0 13 -2 35 -4 49 -10 63 -7 297 4 324 9 21 9
32 0 42 -14 17 -9 17 26 4z m848 -23 c-45 -55 -158 -132 -208 -144 -66 -15
-77 -15 -68 0 29 50 259 187 286 170 5 -3 0 -15 -10 -26z m-1049 -7 c27 -10
35 -26 14 -27 -7 0 -44 -3 -81 -7 -54 -5 -68 -4 -65 6 11 32 82 47 132 28z
m-244 -166 c49 -7 70 -19 70 -40 0 -9 -11 -14 -27 -14 -16 0 -51 -3 -79 -6
-38 -4 -53 -2 -63 10 -9 10 -22 13 -42 9 -45 -9 -36 15 14 36 23 10 51 17 62
15 11 -2 40 -6 65 -10z m-209 -16 c0 -13 2 -31 4 -40 2 -12 -3 -18 -15 -18
-25 0 -29 8 -23 48 6 36 33 44 34 10z m819 -76 c0 -4 -15 -16 -32 -27 -18 -10
-41 -28 -50 -40 -17 -20 -17 -20 -13 4 5 28 5 28 47 51 37 21 48 24 48 12z
m438 -62 c-16 -25 -55 -37 -71 -21 -16 17 17 41 55 41 26 0 27 -2 16 -20z
m-279 -96 c19 -17 -83 -31 -104 -14 -8 7 -15 16 -15 20 0 8 110 2 119 -6z
m-1114 -95 c4 -6 5 -12 2 -15 -11 -12 -77 -18 -154 -15 -44 2 -23 19 35 29 80
13 110 14 117 1z m131 -4 c-8 -8 -18 -15 -22 -15 -4 0 -13 -8 -20 -17 -19 -26
-28 -9 -10 19 9 13 27 25 41 26 23 2 25 0 11 -13z m237 -51 c-4 -10 1 -22 11
-29 10 -8 14 -19 10 -29 -6 -15 -8 -15 -20 1 -15 21 -19 73 -4 73 5 0 7 -7 3
-16z m330 -53 c-3 -12 -10 -21 -15 -21 -6 0 -7 7 -4 16 3 9 6 28 7 42 0 25 1
26 9 5 5 -11 6 -30 3 -42z m-41 5 c-8 -29 -33 -47 -49 -34 -15 12 -17 58 -3
58 6 0 10 -7 10 -15 0 -25 17 -17 25 12 4 19 9 23 14 14 5 -7 6 -23 3 -35z
m-198 -13 c5 -16 2 -25 -14 -33 -19 -10 -20 -8 -20 37 0 41 2 45 14 33 8 -8
17 -25 20 -37z m-549 6 c4 -6 19 -7 36 -4 22 5 29 3 29 -9 0 -9 4 -16 9 -16 6
0 8 9 6 20 -4 20 9 28 19 11 3 -5 8 -25 11 -44 5 -29 2 -36 -13 -41 -25 -8
-52 2 -52 20 0 8 -4 14 -9 14 -5 0 -7 -9 -4 -20 10 -37 -13 -21 -35 25 -12 25
-22 48 -22 50 0 9 19 5 25 -6z m159 -19 c6 0 11 -12 10 -27 -3 -45 -44 -24
-44 23 0 26 14 41 18 20 2 -9 9 -16 16 -16z m168 -12 c4 -26 3 -29 -7 -14 -12
15 -13 15 -19 0 -4 -9 -9 -15 -12 -12 -7 8 14 58 25 58 5 0 11 -14 13 -32z
m-673 -24 c-7 -8 -7 -14 1 -19 6 -3 8 -11 4 -16 -3 -5 -19 1 -37 13 l-31 22
24 6 c40 10 51 8 39 -6z m1587 -100 c31 -20 80 -47 108 -59 55 -25 184 -144
209 -192 14 -26 47 -129 53 -163 4 -22 -16 -101 -32 -127 -18 -29 -64 -52
-117 -59 -23 -3 -56 -9 -74 -14 -31 -8 -36 -4 -48 30 -1 3 -8 19 -15 35 -7 17
-14 53 -16 80 -4 52 -8 74 -56 263 -28 115 -36 129 -76 151 -30 16 -47 58 -31
77 17 21 33 17 95 -22z m-566 -712 c0 -28 -21 -42 -61 -42 -43 0 -54 10 -36
34 32 44 97 49 97 8z"/>
<path d="M2850 6456 c-64 -17 -144 -81 -163 -129 -8 -21 6 -22 24 -1 28 34 93
57 159 58 55 1 76 -5 140 -36 77 -37 110 -50 121 -45 3 1 13 -4 21 -10 19 -16
28 -7 28 26 0 43 -25 67 -107 100 -119 48 -158 54 -223 37z"/>
<path d="M2951 6205 c-28 -31 -56 -42 -93 -36 -102 15 -157 16 -171 2 -15 -15
15 -40 50 -42 13 -1 26 -2 31 -3 4 -1 23 -5 43 -9 39 -8 74 -36 48 -38 -8 -1
-18 0 -24 1 -46 10 -96 10 -90 0 4 -6 9 -9 12 -6 3 2 22 -1 42 -9 31 -11 171
-15 191 -5 3 1 9 2 13 1 15 -2 66 29 81 51 24 34 19 56 -19 94 -45 44 -73 43
-114 -1z"/>
<path d="M3037 5925 c-36 -36 -39 -58 -10 -69 37 -15 116 67 90 93 -19 19 -44
12 -80 -24z"/>
<path d="M2784 5882 c-98 -28 -169 -93 -172 -157 l-2 -40 19 36 c19 35 71 77
121 99 35 14 92 49 109 65 12 12 11 14 -7 12 -12 0 -42 -7 -68 -15z"/>
<path d="M3560 5493 c0 -4 -7 -29 -15 -55 -15 -51 -13 -61 6 -27 19 36 28 78
18 84 -5 4 -9 3 -9 -2z"/>
<path d="M215 5305 c4 -22 9 -49 13 -60 3 -11 7 -26 8 -34 2 -7 8 -19 14 -25
8 -8 10 -7 6 4 -5 15 -12 46 -22 105 -3 17 -10 35 -16 40 -6 7 -7 -3 -3 -30z"/>
<path d="M291 5060 c0 -8 9 -42 20 -75 11 -33 23 -71 25 -84 6 -30 62 -175 98
-253 54 -120 74 -164 94 -213 25 -60 132 -367 137 -395 16 -86 76 -246 90
-242 16 4 10 30 -56 227 -34 105 -64 195 -65 200 -11 44 -12 59 -1 76 6 10 16
19 22 18 5 0 42 -49 80 -110 39 -60 79 -121 91 -136 21 -27 21 -27 33 -6 20
38 31 245 18 343 -4 25 -13 79 -22 120 -18 87 -26 130 -28 148 0 6 -4 12 -9
12 -5 0 -6 5 -3 11 11 17 -24 96 -49 113 -34 21 -133 48 -155 41 -35 -11 -52
-41 -55 -99 -2 -31 -6 -59 -9 -63 -11 -11 -47 28 -89 97 -33 55 -85 134 -115
175 -5 6 -9 17 -11 24 -5 25 -41 86 -41 71z"/>
<path d="M2782 4137 c-26 -31 -32 -115 -18 -237 9 -82 16 -167 19 -243 2 -61
5 -71 29 -92 15 -13 35 -22 45 -21 36 5 41 40 40 278 0 216 -1 231 -21 261
-29 43 -80 72 -94 54z"/>
<path d="M2277 3557 c-5 -14 24 -58 66 -104 30 -32 128 -71 217 -87 19 -3 46
-8 58 -11 72 -14 142 -17 142 -6 0 6 7 11 15 11 8 0 15 3 15 8 0 7 111 54 139
58 8 2 33 -7 56 -19 37 -20 55 -22 176 -21 74 1 143 4 154 7 45 12 81 29 102
49 18 17 20 24 11 49 -5 16 -15 30 -21 30 -7 1 -23 3 -37 5 -64 10 -159 6
-205 -9 -103 -34 -176 -38 -230 -13 -37 18 -58 13 -98 -22 -16 -14 -21 -14
-50 0 -33 15 -87 14 -120 -4 -68 -36 -123 -29 -236 30 -104 54 -147 68 -154
49z"/>
<path d="M878 3448 c-43 -41 -101 -76 -130 -78 -48 -4 -137 -70 -164 -123 -15
-28 -17 -38 -30 -182 -17 -191 -15 -197 78 -202 34 -2 64 -6 67 -9 3 -2 6 -29
7 -58 2 -55 22 -105 55 -141 37 -42 30 -80 -32 -171 -16 -23 -26 -44 -23 -46
2 -3 -2 -11 -11 -18 -8 -7 -15 -20 -15 -29 0 -9 -4 -21 -9 -26 -10 -10 -32
-89 -32 -115 0 -8 -7 -51 -15 -95 -22 -124 -22 -128 -8 -164 16 -39 48 -69 81
-77 13 -4 58 -3 101 1 123 11 168 8 242 -15 70 -22 148 -35 205 -35 l30 0 1
80 c1 44 -1 85 -5 90 -3 6 -7 19 -8 29 -2 10 -21 71 -42 135 -22 64 -51 168
-66 231 -15 63 -33 144 -42 180 -8 36 -17 79 -20 95 -2 17 -11 55 -18 86 -8
30 -23 98 -34 150 -11 52 -24 111 -29 132 -6 20 -8 37 -5 37 3 0 0 7 -7 15
-10 12 -16 13 -28 3 -13 -11 -13 -9 1 12 9 14 15 36 13 50 -6 55 -72 256 -87
265 -4 3 -13 0 -21 -7z m-129 -160 c7 -20 1 -31 -46 -83 -30 -33 -54 -55 -53
-50 6 26 -2 43 -21 48 -20 5 -20 6 -2 34 9 15 20 30 23 33 3 3 19 22 34 43 27
36 29 37 42 18 8 -10 18 -30 23 -43z m81 -57 c0 -8 -25 -43 -62 -86 -9 -11
-24 -29 -32 -40 -13 -17 -15 -18 -16 -3 0 30 21 72 53 106 29 30 57 42 57 23z
m104 -176 c-4 -8 -10 -15 -15 -15 -5 0 -9 -11 -9 -24 0 -25 -48 -57 -79 -51
-9 2 -20 4 -25 4 -10 1 114 99 126 100 4 1 5 -6 2 -14z m77 -860 c-11 -25 -22
-45 -24 -45 -3 0 2 27 11 61 11 46 17 57 24 45 6 -11 2 -31 -11 -61z"/>
<path d="M1460 2755 c-18 -47 -22 -73 -12 -79 9 -5 14 13 29 87 5 26 -6 21
-17 -8z"/>
<path d="M1434 2647 c-5 -7 -24 -66 -42 -132 -31 -118 -35 -139 -47 -220 -4
-22 -8 -51 -10 -65 -18 -115 -24 -193 -13 -182 6 7 10 27 23 117 3 22 8 51 11
65 3 14 8 35 10 48 4 19 32 142 71 307 9 39 14 75 11 75 -2 -1 -8 -6 -14 -13z"/>
<path d="M1309 2003 c0 -10 -3 -27 -5 -38 -8 -35 -17 -140 -11 -135 6 5 13 35
23 100 3 19 7 45 9 57 2 13 -1 25 -6 28 -5 4 -9 -2 -10 -12z"/>
<path d="M1415 873 c9 -23 13 -43 14 -67 1 -13 4 -17 11 -10 11 11 -8 94 -22
94 -6 0 -7 -8 -3 -17z"/>
<path d="M1570 336 c0 -4 4 -16 10 -26 8 -15 6 -20 -8 -24 -15 -5 -17 -17 -15
-92 3 -97 12 -127 14 -43 1 30 2 71 2 91 1 20 4 35 8 32 6 -3 16 -43 20 -79 1
-5 5 -20 10 -33 5 -13 11 -37 14 -54 6 -32 24 -71 25 -53 0 6 -7 42 -16 80 -8
39 -21 96 -28 128 -7 32 -18 63 -24 69 -7 7 -12 9 -12 4z"/>
<path d="M1555 80 c3 -5 8 -10 11 -10 2 0 4 5 4 10 0 6 -5 10 -11 10 -5 0 -7
-4 -4 -10z"/>
</g>
</svg>
