<?xml version="1.0" encoding="UTF-8"?>
<svg id="Layer_2" data-name="Layer 2" xmlns="http://www.w3.org/2000/svg" xmlns:xlink="http://www.w3.org/1999/xlink" viewBox="0 0 1366 746.92">
  <defs>
    <style>
      .cls-1 {
        fill: url(#radial-gradient);
      }
    </style>
    <radialGradient id="radial-gradient" cx="1328.71" cy="696.51" fx="1328.71" fy="696.51" r="1801.78" gradientUnits="userSpaceOnUse">
      <stop offset="0" stop-color="#ffa1ac"/>
      <stop offset=".22" stop-color="#ffaab3" stop-opacity=".76"/>
      <stop offset=".6" stop-color="#ffbcbf" stop-opacity=".36"/>
      <stop offset=".87" stop-color="#ffc6c7" stop-opacity=".1"/>
      <stop offset="1" stop-color="#ffcbca" stop-opacity="0"/>
    </radialGradient>
  </defs>
  <g id="Layer_1-2" data-name="Layer 1">
    <path class="cls-1" d="m51.93,721.36c31.89-11.4,65.72-17.39,99.57-17.76,40.6-.45,78.38,11.79,117.88,21.6,7.49,1.86,15.13,3.74,22.83,3.3,9.24-.52,17.92-4.3,26.57-7.6,58.36-22.26,124.4-23.75,183.71-4.15,15.27,5.05,30.45,11.51,46.52,12.04,19.71.65,38.44-7.66,57.21-13.71,62.23-18.67,119.94-12.35,180.55,8.28,9.33,3.17,18.86,6.45,28.71,6.34,11.35-.12,22.1-4.71,32.76-8.61,69.54-25.43,148.79-23.16,216.76,6.21,4.72,2.04,9.54,4.24,14.67,4.39,5.91.17,11.5-2.37,16.93-4.71,26.99-11.6,55.77-18.95,84.98-21.99,10.6-1.1,21.32-1.58,32.08-1.45,52.98.63,106.99,15.94,152.34,43.38V251.46s-170.5-102.96-383.5-107.96S683,0,683,0H0v746c16.68-10.04,34.25-18.32,51.93-24.63Z"/>
  </g>
</svg>